<svg width="36.000000" height="36.000000" viewBox="0 0 36 36" fill="none" xmlns="http://www.w3.org/2000/svg" xmlns:xlink="http://www.w3.org/1999/xlink">
	<desc>
			Created with Pixso.
	</desc>
	<g clip-path="url(#clip10_753)">
		<rect id="rect" width="36.000000" height="36.000000" fill="#000000"/>
		<rect id="rect" width="36.000000" height="36.000000" fill="#000000"/>
		<path id="path" d="M9.97559 15.127C10.8154 15.127 11.5137 14.9805 12.0703 14.6875L12.0703 13.75C11.5171 14.0886 10.8657 14.2578 10.1172 14.2578C9.31641 14.2578 8.66846 13.9917 8.17383 13.4595C7.6792 12.9272 7.43164 12.2087 7.43164 11.3037C7.43164 10.3499 7.69678 9.59229 8.22754 9.03076C8.7583 8.46924 9.44482 8.18848 10.2881 8.18848C10.936 8.18848 11.5298 8.33813 12.0703 8.6377L12.0703 7.61719C11.5981 7.41211 11.001 7.30957 10.2783 7.30957C9.15527 7.30957 8.229 7.68066 7.5 8.42285C6.771 9.16504 6.40625 10.1448 6.40625 11.3623C6.40625 12.4951 6.72998 13.4058 7.37793 14.0942C8.02588 14.7827 8.8916 15.127 9.97559 15.127ZM23.0225 15.127C23.8623 15.127 24.5605 14.9805 25.1172 14.6875L25.1172 13.75C24.564 14.0886 23.9126 14.2578 23.1641 14.2578C22.3633 14.2578 21.7153 13.9917 21.2207 13.4595C20.7261 12.9272 20.4785 12.2087 20.4785 11.3037C20.4785 10.3499 20.7437 9.59229 21.2744 9.03076C21.8052 8.46924 22.4917 8.18848 23.335 8.18848C23.9829 8.18848 24.5767 8.33813 25.1172 8.6377L25.1172 7.61719C24.645 7.41211 24.0479 7.30957 23.3252 7.30957C22.2021 7.30957 21.2759 7.68066 20.5469 8.42285C19.8179 9.16504 19.4531 10.1448 19.4531 11.3623C19.4531 12.4951 19.7769 13.4058 20.4248 14.0942C21.0728 14.7827 21.9385 15.127 23.0225 15.127ZM13.8477 10.2466C13.3496 10.7625 13.1006 11.4666 13.1006 12.3584C13.1006 13.1885 13.3413 13.8574 13.8232 14.3652C14.3052 14.873 14.9497 15.127 15.7568 15.127C16.5835 15.127 17.2427 14.865 17.7344 14.3408C18.2261 13.8167 18.4717 13.1282 18.4717 12.2754C18.4717 11.3997 18.2412 10.7136 17.7808 10.2173C17.3203 9.72095 16.6846 9.47266 15.874 9.47266C15.021 9.47266 14.3457 9.73071 13.8477 10.2466ZM26.8945 10.2466C26.3965 10.7625 26.1475 11.4666 26.1475 12.3584C26.1475 13.1885 26.3882 13.8574 26.8701 14.3652C27.3521 14.873 27.9966 15.127 28.8037 15.127C29.6304 15.127 30.2896 14.865 30.7812 14.3408C31.2729 13.8167 31.5186 13.1282 31.5186 12.2754C31.5186 11.3997 31.2881 10.7136 30.8276 10.2173C30.3672 9.72095 29.7314 9.47266 28.9209 9.47266C28.0679 9.47266 27.3926 9.73071 26.8945 10.2466ZM14.5483 13.7988C14.2344 13.4407 14.0771 12.9509 14.0771 12.3291C14.0771 11.6877 14.2324 11.1833 14.5435 10.8154C14.8545 10.4475 15.2783 10.2637 15.8154 10.2637C16.3623 10.2637 16.7788 10.4395 17.0654 10.791C17.3521 11.1426 17.4951 11.6472 17.4951 12.3047C17.4951 12.959 17.3521 13.4612 17.0654 13.811C16.7788 14.1609 16.3623 14.3359 15.8154 14.3359C15.2847 14.3359 14.8623 14.157 14.5483 13.7988ZM27.5952 13.7988C27.2812 13.4407 27.124 12.9509 27.124 12.3291C27.124 11.6877 27.2793 11.1833 27.5903 10.8154C27.9014 10.4475 28.3252 10.2637 28.8623 10.2637C29.4092 10.2637 29.8257 10.4395 30.1123 10.791C30.3989 11.1426 30.542 11.6472 30.542 12.3047C30.542 12.959 30.3989 13.4612 30.1123 13.811C29.8257 14.1609 29.4092 14.3359 28.8623 14.3359C28.3315 14.3359 27.9092 14.157 27.5952 13.7988ZM15.9473 20.0068L15.9473 28L16.9043 28L16.9043 20.0068L15.9473 20.0068ZM22.3438 28L23.3008 28L23.3008 20.0068L22.3438 20.0068L22.3438 23.332C22.0117 22.759 21.4585 22.4727 20.7227 22.4727C19.9868 22.4727 19.3911 22.7422 18.9355 23.2808C18.48 23.8196 18.252 24.5349 18.252 25.4268C18.252 26.2537 18.4536 26.9104 18.8574 27.397C19.2612 27.8838 19.8047 28.127 20.4883 28.127C21.3184 28.127 21.9302 27.7852 22.3242 27.1016L22.3438 28ZM13.3472 20.2681C13.2314 20.3835 13.1738 20.5261 13.1738 20.6953C13.1738 20.8645 13.231 21.0054 13.3447 21.1177C13.4585 21.23 13.6021 21.2861 13.7744 21.2861C13.9468 21.2861 14.0928 21.23 14.2114 21.1177C14.3301 21.0054 14.3896 20.8645 14.3896 20.6953C14.3896 20.5227 14.3301 20.3796 14.2114 20.2656C14.0928 20.1516 13.9468 20.0947 13.7744 20.0947C13.605 20.0947 13.4629 20.1526 13.3472 20.2681ZM0.976562 20.4365L0.976562 28L3.25684 28C3.98584 28 4.58398 27.7991 5.05127 27.397C5.51855 26.9949 5.75195 26.4685 5.75195 25.8174C5.75195 25.3096 5.59814 24.8904 5.29053 24.5601C4.98291 24.2297 4.57178 24.0352 4.05762 23.9766C4.47119 23.843 4.7959 23.5974 5.03174 23.2783C5.26758 22.9592 5.38574 22.5916 5.38574 22.1748C5.38574 21.6506 5.18701 21.23 4.79004 20.9126C4.39307 20.5952 3.8623 20.4365 3.19824 20.4365L0.976562 20.4365ZM1.95312 23.6592L1.95312 21.291L2.92969 21.291C3.88037 21.291 4.35547 21.6475 4.35547 22.3604C4.35547 22.7673 4.22119 23.0854 3.95264 23.3149C3.68408 23.5444 3.31396 23.6592 2.8418 23.6592L1.95312 23.6592ZM25.6299 25.5439L29.4092 25.5439L29.4092 25.0605C29.4092 24.2434 29.2104 23.6079 28.8135 23.1538C28.4165 22.6997 27.8647 22.4727 27.1582 22.4727C26.4453 22.4727 25.8486 22.7412 25.3687 23.2783C24.8887 23.8154 24.6484 24.4973 24.6484 25.3242C24.6484 26.2031 24.8672 26.8899 25.3052 27.3848C25.7432 27.8796 26.3525 28.127 27.1338 28.127C27.9185 28.127 28.5483 27.9592 29.0234 27.624L29.0234 26.7695C28.519 27.157 27.9639 27.3506 27.3584 27.3506C26.8213 27.3506 26.4028 27.1936 26.1035 26.8794C25.8042 26.5652 25.646 26.1201 25.6299 25.5439ZM32.9199 23.376C33.1997 23.376 33.4194 23.4329 33.5791 23.5469L33.5791 22.5801C33.4619 22.5312 33.2944 22.5068 33.0762 22.5068C32.4058 22.5068 31.9336 22.9041 31.6602 23.6982L31.6406 22.5996L30.6836 22.5996L30.6836 28L31.6406 28L31.6406 25.2656C31.6406 24.6992 31.7612 24.2427 32.002 23.896C32.2427 23.5493 32.5488 23.376 32.9199 23.376ZM10.625 28L11.5869 28L11.5869 22.5996L10.625 22.5996L10.625 25.71C10.625 26.1787 10.4966 26.5669 10.2393 26.8745C9.98193 27.1821 9.64502 27.3359 9.22852 27.3359C8.38867 27.3359 7.96875 26.7874 7.96875 25.6904L7.96875 22.5996L7.02148 22.5996L7.02148 25.832C7.02148 27.3621 7.66113 28.127 8.94043 28.127C9.68896 28.127 10.2441 27.8015 10.6055 27.1504L10.625 28ZM13.2861 22.5996L13.2861 28L14.2432 28L14.2432 22.5996L13.2861 22.5996ZM28.1055 23.6445C28.3335 23.9114 28.4487 24.2891 28.4521 24.7773L25.6299 24.7773C25.7017 24.3215 25.8765 23.9521 26.1548 23.6689C26.4331 23.3857 26.7627 23.2441 27.1436 23.2441C27.5571 23.2441 27.8774 23.3777 28.1055 23.6445ZM21.9214 23.7007C22.2061 23.9919 22.3486 24.3542 22.3486 24.7871L22.3486 25.5391C22.3486 26.05 22.2021 26.4773 21.9092 26.8208C21.6162 27.1643 21.2388 27.3359 20.7764 27.3359C20.3076 27.3359 19.9326 27.1609 19.6509 26.811C19.3691 26.4612 19.2285 25.9851 19.2285 25.3828C19.2285 24.7285 19.375 24.2117 19.668 23.8325C19.9609 23.4534 20.3613 23.2637 20.8691 23.2637C21.2856 23.2637 21.6367 23.4094 21.9214 23.7007ZM1.95312 27.1455L1.95312 24.5088L2.96387 24.5088C4.13916 24.5088 4.72656 24.9417 4.72656 25.8076C4.72656 26.2275 4.5874 26.5554 4.30908 26.7915C4.03076 27.0276 3.63623 27.1455 3.125 27.1455L1.95312 27.1455Z" fill-rule="nonzero" fill="#F9F7F7"/>
	</g>
	<defs>
		<clipPath id="clip10_753">
			<rect id="svg" width="36.000000" height="36.000000" fill="white"/>
		</clipPath>
	</defs>
</svg>
